<svg xmlns="http://www.w3.org/2000/svg" xmlns:xlink="http://www.w3.org/1999/xlink" viewBox="0 0 424.6 95.08"><defs><style>.cls-1{fill:none;}.cls-2{clip-path:url(#clip-path);}.cls-3{fill:url(#Degradado_sin_nombre);}.cls-4{fill:#aa1e37;}.cls-5{fill:#6e6e71;}</style><clipPath id="clip-path"><path class="cls-1" d="M59.83,24.09a30.28,30.28,0,0,1,6.1,4.61c.6-.55,2.84-2.71,3.33-3.12.15.15,1.34,1.43,1.49,1.59-.36.39-2.75,2.62-3.3,3.11a30,30,0,0,1,7.37,16.66l0-.57L79.33,46l.17,2.19L75,48.56c0,.53,0,1.06,0,1.6a29.87,29.87,0,0,1-4.76,16.22l.44-.66,3.79,2.55-1.22,1.82-3.8-2.55.1-.14A30.13,30.13,0,0,1,55.63,78.22l1.43,4.22-2.09.7-1.42-4.22a30.14,30.14,0,0,1-17.18,0L35,83.1l-2.08-.7,1.42-4.22A30,30,0,0,1,20.53,67.5L16.8,70l-1.23-1.83,3.75-2.52A29.88,29.88,0,0,1,15,50.16c0-.54,0-1.07.06-1.61l-4.51-.35L10.72,46l4.53.36a29.9,29.9,0,0,1,7.31-16.09c-.85-.89-2.14-2-3.26-3.06.7-.77,1.41-1.52,1.52-1.63.59.52,2.65,2.5,3.28,3.08a30.3,30.3,0,0,1,6.08-4.58V7.71A45.2,45.2,0,0,0,5,29.61l6.5,3.07L9.24,37.4l-6.39-3a45,45,0,0,0-2,24.35l7-1.6L9,62.23,2.11,63.8A45.19,45.19,0,0,0,15.57,84.19l4.34-5.51L24,81.92l-4.3,5.46a44.73,44.73,0,0,0,22.68,7.7V88h5.23v7.08A44.73,44.73,0,0,0,70,87.58l-4.46-5.66,4.11-3.24,4.52,5.74A45,45,0,0,0,87.9,63.79l-6.84-1.56,1.16-5.09,7,1.58a44.8,44.8,0,0,0-2-24.12l-6.3,3-2.22-4.72,6.43-3A45.19,45.19,0,0,0,59.83,7.71Z"/></clipPath><linearGradient id="Degradado_sin_nombre" x1="-89.96" y1="422.28" x2="-88.96" y2="422.28" gradientTransform="matrix(0, 87.37, 87.37, 0, -36851.39, 7867.88)" gradientUnits="userSpaceOnUse"><stop offset="0" stop-color="#dedfe3"/><stop offset="0.23" stop-color="#858487"/><stop offset="0.52" stop-color="#87868a"/><stop offset="0.76" stop-color="#c6cbcc"/><stop offset="0.95" stop-color="#5b5b5f"/><stop offset="1" stop-color="#5b5b5f"/></linearGradient></defs><title>Recurso 1</title><g id="Capa_2" data-name="Capa 2"><g id="Capa_1-2" data-name="Capa 1"><g class="cls-2"><rect class="cls-3" y="7.71" width="90" height="87.37"/></g><path class="cls-4" d="M52.36,45.35V7.51h0L45.13,0,37.87,7.51h0V45.13a9.6,9.6,0,1,0,14.5.22"/><path class="cls-5" d="M301.41,89.4h-4.28v3.95h4.77v1.18h-6.19V83.6h5.94v1.18h-4.52v3.46h4.28Z"/><path class="cls-5" d="M304.39,94.53V83.6h1.55l3.53,5.53a31.18,31.18,0,0,1,2,3.55h0c-.13-1.46-.16-2.79-.16-4.5V83.6h1.34V94.53h-1.44L307.72,89a33.72,33.72,0,0,1-2.05-3.65l-.05,0c.08,1.38.11,2.69.11,4.51v4.67Z"/><path class="cls-5" d="M321.48,89.4H317.2v3.95H322v1.18h-6.18V83.6h5.94v1.18H317.2v3.46h4.28Z"/><path class="cls-5" d="M324.46,83.74a15.54,15.54,0,0,1,2.73-.22,4.51,4.51,0,0,1,3.18.89,2.73,2.73,0,0,1,.86,2.08,2.87,2.87,0,0,1-2.07,2.79v0a2.76,2.76,0,0,1,1.62,2.21,16.41,16.41,0,0,0,.84,3h-1.46a14,14,0,0,1-.74-2.61c-.33-1.51-.91-2.08-2.2-2.13h-1.34v4.74h-1.42Zm1.42,5h1.45c1.52,0,2.48-.82,2.48-2.07,0-1.41-1-2-2.53-2.05a6.16,6.16,0,0,0-1.4.13Z"/><path class="cls-5" d="M342.24,94a10.16,10.16,0,0,1-3.37.6,5.15,5.15,0,0,1-5.65-5.51c0-3.26,2.27-5.65,6-5.65a6.75,6.75,0,0,1,2.74.51l-.34,1.15a5.76,5.76,0,0,0-2.43-.47,4.1,4.1,0,0,0-4.43,4.39c0,2.78,1.68,4.42,4.25,4.42a4.48,4.48,0,0,0,1.89-.3V89.92h-2.24V88.79h3.62Z"/><path class="cls-5" d="M347.5,94.53V89.89L344,83.6h1.62l1.55,3c.42.82.75,1.49,1.09,2.25h0c.31-.71.69-1.43,1.11-2.25l1.59-3h1.61l-3.69,6.28v4.65Z"/><path class="cls-5" d="M358.45,92.81a5,5,0,0,0,2.54.71c1.45,0,2.3-.76,2.3-1.86s-.58-1.61-2.07-2.17c-1.79-.64-2.9-1.56-2.9-3.1,0-1.71,1.42-3,3.55-3a5,5,0,0,1,2.43.54l-.39,1.15a4.33,4.33,0,0,0-2.09-.52c-1.5,0-2.07.89-2.07,1.64,0,1,.67,1.52,2.19,2.1,1.86.72,2.8,1.61,2.8,3.22s-1.25,3.14-3.85,3.14a5.69,5.69,0,0,1-2.8-.69Z"/><path class="cls-5" d="M373,89.4h-4.28v3.95h4.76v1.18h-6.18V83.6h5.94v1.18h-4.52v3.46H373Z"/><path class="cls-5" d="M376,83.74a15.54,15.54,0,0,1,2.73-.22,4.51,4.51,0,0,1,3.18.89,2.73,2.73,0,0,1,.86,2.08,2.87,2.87,0,0,1-2.07,2.79v0a2.76,2.76,0,0,1,1.62,2.21,16.41,16.41,0,0,0,.84,3H381.7a14,14,0,0,1-.74-2.61c-.33-1.51-.91-2.08-2.2-2.13h-1.34v4.74H376Zm1.42,5h1.45c1.52,0,2.48-.82,2.48-2.07,0-1.41-1-2-2.53-2.05a6.16,6.16,0,0,0-1.4.13Z"/><path class="cls-5" d="M387.83,94.53,384.24,83.6h1.54L387.49,89c.47,1.48.88,2.81,1.17,4.09h0c.3-1.26.76-2.64,1.25-4.07l1.86-5.4h1.52L389.4,94.53Z"/><path class="cls-5" d="M396.58,83.6V94.53h-1.42V83.6Z"/><path class="cls-5" d="M407.39,94.17a7,7,0,0,1-2.9.52,5.12,5.12,0,0,1-5.43-5.53,5.45,5.45,0,0,1,5.74-5.74,5.85,5.85,0,0,1,2.61.49l-.34,1.15a5.21,5.21,0,0,0-2.22-.46c-2.58,0-4.29,1.64-4.29,4.51,0,2.68,1.55,4.4,4.22,4.4a5.8,5.8,0,0,0,2.32-.45Z"/><path class="cls-5" d="M415.52,89.4h-4.28v3.95H416v1.18h-6.19V83.6h5.94v1.18h-4.52v3.46h4.28Z"/><path class="cls-5" d="M418.31,92.81a5,5,0,0,0,2.54.71c1.45,0,2.3-.76,2.3-1.86s-.58-1.61-2.07-2.17c-1.79-.64-2.9-1.56-2.9-3.1,0-1.71,1.42-3,3.55-3a5,5,0,0,1,2.43.54l-.39,1.15a4.32,4.32,0,0,0-2.08-.52c-1.51,0-2.08.89-2.08,1.64,0,1,.67,1.52,2.19,2.1,1.86.72,2.8,1.61,2.8,3.22s-1.25,3.14-3.85,3.14A5.72,5.72,0,0,1,418,94Z"/><path class="cls-4" d="M104.52,39.84V27.31h41.14q18.12,0,18.11,14.66V62.13q0,13.44-18.11,13.45H116.07q-12.45,0-12.45-11.24v-7.2q0-10.83,12.45-10.83h31.86V43c0-2.11-1.22-3.16-3.64-3.16Zm39.77,23c2.42,0,3.64-1.16,3.64-3.47V56H122.54q-3.08,0-3.07,3.56,0,3.23,3.07,3.23Z"/><path class="cls-4" d="M188.21,75.49H172.36V43.16q0-15.85,19.49-15.85h20.94V39.84H191.85q-3.65,0-3.64,3.16Z"/><path class="cls-4" d="M260.89,81.48Q266,81.48,266,77V68.54H231.54q-13.66,0-13.66-12.61V39.84q0-12.53,19.48-12.53h25q19.49,0,19.48,12.53V79q0,15.84-19.48,15.85h-42V81.48ZM266,55.2V43q0-3.16-3.63-3.16H237.43q-3.7,0-3.71,3.16v9q0,3.22,3.71,3.23Z"/><path class="cls-4" d="M335.1,27.31q19.5,0,19.51,15.85V59.81q0,15.69-19.51,15.68h-25q-19.51,0-19.52-15.84V43.16q0-15.85,19.52-15.85Zm-25,12.53c-2.42,0-3.64,1-3.64,3.16V58.92c0,2.16,1.22,3.23,3.64,3.23h25q3.72,0,3.72-3.07V43q0-3.16-3.72-3.16Z"/><path class="cls-4" d="M409.79,45.58q12.46,0,12.45,9.94v9.22q0,10.76-12.45,10.75H362V62.15h41.31c2,0,3.07-1.15,3.07-3.47,0-1.94-1-2.91-3.07-2.91H373.9q-12.45,0-12.45-10.11V37.82q0-10.5,12.45-10.51h46.89V39.84H380.37c-2.05,0-3.07,1-3.07,2.91s1,2.83,3.07,2.83Z"/></g></g></svg>